<svg xmlns="http://www.w3.org/2000/svg" width="230" height="46" viewBox="0 0 260 51"><style>.a{fill:#68C4E8;}.b{fill:#2A658F;}</style><path d="M259.6 14.2c0 11.8 0 23.5 0 35.3 -2.5 0.5-5 0.9-7.6 1.2 -0.2-1.2-0.5-2.3-0.5-3.7 -1 0.9-2.1 2.1-3.6 2.9 -1.8 1-5.2 1.2-7.4 0.4 -5-1.8-4.5-8.4-4.5-15.3 0-6.6 0-13.8 0-19.9 3-0.3 5.9-0.7 8.9-0.9 0 6.8 0 14.3 0 21.5 0 2.1-0.3 5.4 0.8 6.5 1.4 1.4 4.9 0 5.2-1.4 0.2-0.8 0-2.1 0-3.2 0-7.6-0.1-15.3 0.1-22.5C253.8 14.8 256.7 14.4 259.6 14.2z" class="a"/><path d="M220.7 13.9c-5.6 0.4-8.7 4.3-10.2 9.1 -1.5 4.7-1.8 11.5-0.5 16.9 1.2 5.3 3.7 9.1 8.6 10.4 5.8 1.5 11.7-0.5 14.6-3.6 -1-2.2-2.2-4.2-3.2-6.4 -1.8 1.6-5.6 3.9-8.9 2.4 -2.3-1-2.7-4-2.9-7.2 5 0 10 0 15 0C233.4 24 232.5 13 220.7 13.9zM218.1 29.2c0.2-3.2 0-7.9 2.9-8.4 4.1-0.7 3.7 4.6 3.8 8.4C222.6 29.2 220.3 29.2 218.1 29.2z" class="a"/><path d="M201.4 39.4c6.5-1 7.7 9 2.8 11.1 -3.5 1.5-6.5-1.4-6.9-4.4C197 42.9 198.6 39.9 201.4 39.4z" class="a"/><path d="M194.6 34.2c0-5.2 0.6-10.9-0.8-14.8 -2.8-8-16.6-6.1-21.8-1.8 1 2.4 2 4.7 3 7.1 1.8-1.1 4.6-3 7.6-2.9 3.3 0.2 3.2 3.5 3 7.3 -5-0.6-9.7 0.6-11.9 3.3 -1.9 2.3-2.7 6.3-2.1 10.6 0.6 3.6 2.6 6.3 5.7 7.3 4.1 1.3 7.5-0.4 9.1-2.9 0.2 1.6 0.9 2.6 1.8 3.4 0 0 0.1 0 0.1 0 2.5-0.9 5-1.7 7.5-2.5C194.1 44.8 194.6 39.5 194.6 34.2zM185.7 42.2c-0.4 1.9-3.3 3.1-4.9 1.5 -1.4-1.4-1.4-6.3-0.1-8.1 1-1.2 2.9-1.4 5-1.1 0 1.3 0 2.6 0 3.9C185.7 39.7 185.9 41.1 185.7 42.2z" class="b"/><path d="M168.9 5.3c0 3.1-2.5 6.4-6.1 5.2 -4.3-1.5-4.3-10.1 1-10.5 0.3 0 0.6 0 0.9 0C167.3 0.4 168.9 2.6 168.9 5.3z" class="b"/><path d="M168.7 13.9c0 12 0 24 0 36.1 -3 0-6 0-9 0 0-11.7 0-23.4 0-35.1 2.9-0.3 6-0.6 8.9-0.9C168.6 13.9 168.7 13.9 168.7 13.9z" class="b"/><path d="M154.7 17c2.1 3.4 1.3 10.5 1.3 15.9 0 6 0 11.8 0 17.1 -3 0-6 0-8.9 0 0-6.7 0-14.1 0-21.3 0-2.3 0.3-5.6-1.2-6.5 -1.6-1-4.5 0.5-4.8 1.7 -0.2 0.8 0 2.2 0 3.3 0 7.6 0 15.3 0 22.8 -3 0-5.9 0-8.9 0 0-11.7 0-23.3 0-35 2.6-0.3 5.3-0.9 7.6-1.1 0.4 1 0.5 2.2 0.5 3.5 1.6-1.5 3.4-3.4 6.3-3.6C150.5 13.5 153.2 14.6 154.7 17z" class="b"/><path d="M119.5 0.6c-0.1 0-0.1 0.1-0.1 0.2 0 5 0 10 0 14.9 -1.3-1.1-3.3-1.9-5.4-1.9 -7.1 0-9.7 6.7-10.3 14.5 -0.6 7.6 0.2 16.7 4.2 20.3 2.4 2.2 7.2 3.1 10.4 0.8 0.8-0.5 1.3-1.3 2-1.9 0.1 0.8 0.2 1.6 0.3 2.4 2.6 0 5.2 0 7.8 0 0-16.1 0-32.3 0-48.4C125.4 1.2 122.4 1 119.5 0.6zM119.4 41.1c-1 2-2.5 2.5-4.2 1.8 -2.4-1-2.3-6.7-2.3-10.4 0-2.1 0.1-4.2 0.3-6.1 0.3-2.4 0.6-4.9 2.8-5.2 1.8-0.2 2.6 0.6 3.4 1.5 0 5.1 0 8.7 0 13.8C119.4 37.9 119.5 38.4 119.4 41.1z" class="b"/><path d="M87.4 13.9c-4.6 0.4-7.6 3.2-9.2 6.5 -1.6 3.2-2.4 8.5-2.2 13.3 0.4 9.6 4 18.1 14.3 16.9 9.1-1 11.6-9.4 11.6-19.8C101.7 21 97.7 13 87.4 13.9zM92.2 33c0 4.3-0.2 10.1-2.9 10.6 -2.8 0.6-3.3-2.2-3.7-4.8 -0.5-3.8-0.5-9.8 0-13.4 0.3-2.1 0.8-4.3 2.8-4.5C92.9 20.3 92.2 28.9 92.2 33z" class="b"/><path d="M71.6 16.6c2.3 3.3 1.6 10.3 1.6 15.9 0 6.1 0 12.1 0 17.5 -3 0-6 0-8.9 0 0-7.2 0-14.2 0-21.7 0-2.2 0.2-5.3-1.2-6.1 -1.6-0.9-4.4 0.4-4.7 1.6 0 1.5 0 2.2 0 3.3 0 7.4 0 15.6 0 22.9 -3 0-6 0-8.9 0 0-16 0-31.9 0-47.9 2.7-0.5 5.6-0.9 8.2-1.5 0.1 0 0.1 0 0.2 0 0.5 5.1 0.5 10.7 0.5 16.2 0.2 0.1 0.4-0.2 0.5-0.3 0.6-0.5 1.1-1.1 1.9-1.5C64.3 12.9 69.7 13.8 71.6 16.6z" class="b"/><path d="M44.9 41c0.7 2.3 1.5 4.7 2.2 7.1 -3 3.2-10.4 3.5-14.2 1.5 -3.8-1.9-5.9-6.4-6.6-11.5 -1.5-11.3 0.9-23.5 11.3-24.3 4.2-0.3 7.3 0.7 9.5 2.5 -0.7 2.4-1.5 4.7-2.2 7.2 -1.1-0.3-1.7-1.1-2.7-1.5 -2.2-0.8-4.5 0-5.5 1.7 -1.1 1.9-1.4 5.4-1.4 8.4 0 4.1 0.3 8.8 2.8 10.2 1.2 0.6 3 0.6 4.3 0.1C43.5 42 44.2 41.3 44.9 41z" class="b"/><path d="M24 35.4c0.3-10.6-0.5-20.8-10-21.6C3.7 13.1 0.6 21.4 0 30.6c0 1.3 0 2.5 0 3.8C0.4 41.3 2.2 47 7.2 49.5c5.6 2.8 13.6 0.8 16.8-2.8 -1-2.3-2.2-4.3-3.2-6.5 -1.3 0.8-2.4 2-4.1 2.5 -5.3 1.8-8-2.3-7.6-7.3C14.1 35.4 19.1 35.4 24 35.4zM9 29.1c0.2-2.8 0.1-6.4 1.8-7.8 0.8-0.6 2-0.8 3.1-0.2 2 1.1 1.7 5 1.7 8C13.4 29.1 11.2 29.1 9 29.1z" class="b"/></svg>
